# xmcd
#
# Track frame offsets:
#	150
#	13877
#	35810
#	59160
#	79952
#	95877
#	117199
#
# Disc length: 1874 seconds
#
# Revision: 0
# Processed by: cddbd v1.5.2PL0 Copyright (c) Steve Scherf et al.
# Submitted via: audiograbber 1.83.01
#
DISCID=66075007
DTITLE=Ryan Adams - Easy Tiger (Special Edition) [2CD] [CD 2)
DYEAR=2007
DGENRE=Alternative Country
TTITLE0=Follow The Lights
TTITLE1=My Love For You Is Real
TTITLE2=Blue Hotel
TTITLE3=Down In A Hole
TTITLE4=This Is It (Cardinals Version)
TTITLE5=If I Am A Stranger (Live Studio Recording)
TTITLE6=Dear John (Live Studio Recording)
EXTD=MARO\n
EXTT0=
EXTT1=
EXTT2=
EXTT3=
EXTT4=
EXTT5=
EXTT6=
PLAYORDER=
